Coordinates
version=1
nRows=9
nColumns=63
inDegrees=yes

Units are S.I. units (second, meters, Newtons, ...)
If the header above contains a line with 'inDegrees', this indicates whether rotational values are in degrees (yes) or radians (no).

endheader
time	pelvis_tilt	pelvis_list	pelvis_rotation	pelvis_tx	pelvis_ty	pelvis_tz	hip_flexion_r	hip_adduction_r	hip_rotation_r	knee_angle_r	knee_angle_r_beta	ankle_angle_r	subtalar_angle_r	mtp_angle_r	hip_flexion_l	hip_adduction_l	hip_rotation_l	knee_angle_l	knee_angle_l_beta	ankle_angle_l	subtalar_angle_l	mtp_angle_l	L5_S1_Flex_Ext	L5_S1_Lat_Bending	L5_S1_axial_rotation	L4_L5_Flex_Ext	L4_L5_Lat_Bending	L4_L5_axial_rotation	L3_L4_Flex_Ext	L3_L4_Lat_Bending	L3_L4_axial_rotation	L2_L3_Flex_Ext	L2_L3_Lat_Bending	L2_L3_axial_rotation	L1_L2_Flex_Ext	L1_L2_Lat_Bending	L1_L2_axial_rotation	L1_T12_Flex_Ext	L1_T12_Lat_Bending	L1_T12_axial_rotation	Abs_r3	Abs_r2	Abs_r1	Abs_t1	Abs_t2	neck_flexion	neck_bending	neck_rotation	arm_flex_r	arm_add_r	arm_rot_r	elbow_flex_r	pro_sup_r	wrist_flex_r	wrist_dev_r	arm_flex_l	arm_add_l	arm_rot_l	elbow_flex_l	pro_sup_l	wrist_flex_l	wrist_dev_l
2.133333	-5.527716	-18.365653	82.340182	0.205174	0.865637	0.537137	46.014055	3.972111	12.230143	44.250783	0.772322	47.904209	-14.619950	0.000000	46.335337	1.381777	3.647451	44.348240	0.774023	49.536957	-7.959308	0.000000	0.059996	-1.293907	1.086114	0.111418	-1.720896	1.153997	0.098567	-3.146004	1.153997	0.068569	-3.146004	0.950350	0.055712	-2.638534	0.882468	0.034282	-2.004261	0.814586	0.428545	-14.636930	6.040643	0.000000	0.000000	25.008949	8.200326	3.839920	48.380287	15.300542	31.851762	132.673714	41.192290	-16.290313	5.607650	25.658978	-0.637355	199.149976	0.563986	30.345865	-1.972550	0.308001
2.150000	-5.366222	-18.594807	82.572744	0.204294	0.864446	0.537774	46.277251	3.851014	11.739522	44.318858	0.773510	47.774392	-14.592073	0.000000	46.819707	1.445852	3.969644	44.740767	0.780874	49.533061	-8.082797	0.000000	0.072344	-1.269762	1.054534	0.134350	-1.688783	1.120442	0.118854	-3.087298	1.120442	0.082682	-3.087298	0.922717	0.067179	-2.589298	0.856809	0.041338	-1.966861	0.790900	0.516748	-14.363796	5.865001	0.000000	0.000000	25.439814	8.320355	3.756134	47.692142	14.934900	32.709025	133.192758	37.707281	-15.038346	5.230278	25.682669	-0.470199	199.706729	0.580286	28.999996	-1.754813	0.176082
2.166667	-5.208240	-18.797919	82.821385	0.203414	0.863512	0.538345	46.437345	3.697761	11.243899	44.276817	0.772776	47.639510	-14.548889	0.000000	47.228566	1.525877	4.297433	45.053482	0.786332	49.480982	-8.196165	0.000000	0.085229	-1.245105	1.007772	0.158279	-1.655990	1.070758	0.140022	-3.027349	1.070758	0.097408	-3.027349	0.881800	0.079144	-2.539019	0.818815	0.048700	-1.928668	0.755829	0.608781	-14.084881	5.604925	0.000000	0.000000	25.859648	8.478720	3.795707	46.866830	14.622301	33.588776	133.639138	34.368806	-13.638010	4.918242	25.687072	-0.339924	200.287849	0.600415	27.502228	-1.477687	0.007796
2.183333	-5.075869	-18.958038	83.045499	0.202607	0.862900	0.538852	46.498692	3.533763	10.809224	44.147922	0.770527	47.505850	-14.503807	0.000000	47.538763	1.616228	4.596203	45.273126	0.790165	49.377363	-8.312139	0.000000	0.096940	-1.222362	0.952364	0.180028	-1.625741	1.011887	0.159263	-2.972050	1.011887	0.110793	-2.972050	0.833318	0.090019	-2.492640	0.773796	0.055392	-1.893438	0.714273	0.692436	-13.827599	5.296763	0.000000	0.000000	26.256792	8.712226	4.008888	45.923602	14.387747	34.458665	134.000022	31.511156	-12.244359	4.733344	25.676292	-0.251970	200.904118	0.623465	25.892740	-1.160330	-0.151118
2.200000	-4.973759	-19.079660	83.230495	0.201905	0.862636	0.539298	46.482673	3.374352	10.454358	43.945956	0.767002	47.368490	-14.461036	0.000000	47.749259	1.707834	4.851917	45.387331	0.792158	49.226914	-8.429417	0.000000	0.108924	-1.202117	0.892840	0.202282	-1.598815	0.948642	0.178951	-2.922827	0.948642	0.124489	-2.922827	0.781235	0.101146	-2.451357	0.725432	0.062239	-1.862079	0.669630	0.778031	-13.598586	4.965706	0.000000	0.000000	26.632724	8.993291	4.363858	44.881019	14.226125	35.290579	134.280367	29.189825	-10.960063	4.713997	25.649238	-0.205057	201.464208	0.650095	24.373107	-0.853362	-0.308845
2.216667	-4.897848	-19.148986	83.362969	0.201362	0.862759	0.539700	46.382061	3.238342	10.192834	43.670655	0.762197	47.233855	-14.410825	0.000000	47.840955	1.782427	5.056576	45.389424	0.792195	49.027551	-8.525559	0.000000	0.119101	-1.184289	0.835371	0.221182	-1.575104	0.887581	0.195671	-2.879480	0.887581	0.136120	-2.879480	0.730949	0.110597	-2.415002	0.678739	0.068054	-1.834464	0.626528	0.850725	-13.396914	4.646081	0.000000	0.000000	26.981479	9.301876	4.828154	43.780978	14.118493	36.068212	134.455209	27.354271	-9.800670	4.859430	25.619168	-0.188843	202.052846	0.679030	22.974769	-0.567554	-0.442149
2.233333	-4.861950	-19.164761	83.427226	0.200981	0.863260	0.540063	46.220820	3.124736	10.034777	43.357878	0.756738	47.094390	-14.354996	0.000000	47.804981	1.851077	5.212658	45.264718	0.790018	48.777755	-8.646378	0.000000	0.127179	-1.170405	0.783482	0.236185	-1.556639	0.832449	0.208943	-2.845724	0.832449	0.145353	-2.845724	0.685546	0.118099	-2.386691	0.636579	0.072670	-1.812958	0.587611	0.908429	-13.239860	4.357489	0.000000	0.000000	27.304815	9.655446	5.410512	42.641030	14.062630	36.739387	134.545608	26.133428	-8.881090	5.259622	25.590526	-0.204996	202.520579	0.711872	21.782660	-0.304395	-0.548523
2.250000	-4.855084	-19.128623	83.426734	0.200770	0.864125	0.540361	45.994378	3.042655	9.975163	43.004634	0.750572	46.951361	-14.287074	0.000000	47.642146	1.896054	5.310389	45.018280	0.785717	48.498617	-8.760570	0.000000	0.133902	-1.159991	0.740271	0.248669	-1.542788	0.786538	0.219987	-2.820402	0.786538	0.153036	-2.820402	0.647737	0.124341	-2.365454	0.601470	0.076511	-1.796826	0.555203	0.956447	-13.122051	4.117166	0.000000	0.000000	27.578839	10.021130	6.029481	41.478034	14.031606	37.276699	134.562168	24.932421	-8.156535	5.805910	25.564304	-0.244376	203.070629	0.745746	20.668238	-0.070388	-0.611318
2.266667	-4.887651	-19.026381	83.353618	0.200720	0.865361	0.540558	45.685510	2.986756	10.029313	42.613168	0.743740	46.804186	-14.218385	0.000000	47.328735	1.928460	5.343941	44.637191	0.779066	48.197956	-8.891533	0.000000	0.136830	-1.153742	0.703827	0.254107	-1.534476	0.747816	0.224798	-2.805207	0.747816	0.156383	-2.805207	0.615849	0.127060	-2.352710	0.571859	0.078185	-1.787146	0.527870	0.977362	-13.051355	3.914475	0.000000	0.000000	27.783706	10.415093	6.754191	40.309776	14.050823	37.650904	134.508756	24.587276	-7.829390	6.585391	25.532123	-0.315383	203.470714	0.778534	19.758786	0.151908	-0.627892
